<svg xmlns="http://www.w3.org/2000/svg" xmlns:xlink="http://www.w3.org/1999/xlink" width="1366" zoomAndPan="magnify" viewBox="0 0 1024.5 576" height="768" preserveAspectRatio="xMidYMid meet" version="1.0"><path stroke-linecap="butt" transform="matrix(0.749634, 0, 0, 0.749634, 352.043027, 105.674958)" fill="none" stroke-linejoin="miter" d="M 217.887468 262.754281 L 639.37955 262.754281 C 642.693667 262.754281 645.382479 260.06547 645.382479 256.751353 L 645.382479 6.999304 C 645.382479 3.685187 642.693667 1.001586 639.37955 1.001586 L 359.790028 1.001586 C 356.475911 1.001586 353.792311 3.685187 353.792311 6.999304 L 353.792311 428.189155 C 353.792311 431.498061 351.103499 434.186872 347.789382 434.186872 L 137.931795 434.186872 C 134.617679 434.186872 131.934078 431.498061 131.934078 428.189155 L 131.934078 147.703363 C 131.934078 144.389246 129.245266 141.705645 125.931149 141.705645 L 6.998128 141.705645 C 3.684011 141.705645 1.000411 144.389246 1.000411 147.703363 L 1.000411 256.751353 C 1.000411 260.06547 3.684011 262.754281 6.998128 262.754281 L 233.55136 262.754281 " stroke="#d9d9d9" stroke-width="2" stroke-opacity="1" stroke-miterlimit="4"/></svg>