<svg xmlns="http://www.w3.org/2000/svg" xmlns:xlink="http://www.w3.org/1999/xlink" width="1366" zoomAndPan="magnify" viewBox="0 0 1024.5 576" height="768" preserveAspectRatio="xMidYMid meet" version="1.0"><path stroke-linecap="butt" transform="matrix(0.749634, 0, 0, 0.749634, 24.673438, 69.609804)" fill="none" stroke-linejoin="miter" d="M 197.40672 210.925244 L 197.40672 401.101354 C 197.40672 404.415471 194.717908 407.099071 191.409002 407.099071 L 7.001331 407.099071 C 3.687214 407.099071 0.998403 404.415471 0.998403 401.101354 L 0.998403 308.70211 C 0.998403 305.393205 3.687214 302.704393 7.001331 302.704393 L 1293.170451 302.704393 C 1296.484568 302.704393 1299.173379 300.020792 1299.173379 296.706675 L 1299.173379 78.219879 C 1299.173379 74.905762 1296.484568 72.21695 1293.170451 72.21695 L 619.159345 72.21695 C 615.845229 72.21695 613.161628 74.905762 613.161628 78.219879 L 613.161628 468.139266 C 613.161628 471.453383 610.472816 474.136984 607.158699 474.136984 L 349.527807 474.136984 C 346.21369 474.136984 343.530089 471.453383 343.530089 468.139266 L 343.530089 6.997633 C 343.530089 3.688727 346.21369 0.999916 349.527807 0.999916 L 527.531312 0.999916 C 530.845428 0.999916 533.53424 3.688727 533.53424 6.997633 L 533.53424 198.924598 C 533.53424 202.238714 530.845428 204.927526 527.531312 204.927526 L 203.404437 204.927526 C 200.095531 204.927526 197.40672 207.611127 197.40672 210.925244 Z M 197.40672 210.925244 " stroke="#d9d9d9" stroke-width="2" stroke-opacity="1" stroke-miterlimit="4"/></svg>