<svg xmlns="http://www.w3.org/2000/svg" xmlns:xlink="http://www.w3.org/1999/xlink" width="1366" zoomAndPan="magnify" viewBox="0 0 1024.5 576" height="768" preserveAspectRatio="xMidYMid meet" version="1.0"><path stroke-linecap="butt" transform="matrix(0.749634, 0, 0, 0.749634, 163.042052, 111.53476)" fill="none" stroke-linejoin="miter" d="M 182.24638 76.251268 L 182.24638 487.472715 C 182.24638 490.786831 179.557569 493.475643 176.243452 493.475643 L 6.999429 493.475643 C 3.685312 493.475643 1.001711 490.786831 1.001711 487.472715 L 1.001711 237.486176 C 1.001711 234.17206 3.685312 231.488459 6.999429 231.488459 L 946.223251 231.488459 C 949.537367 231.488459 952.220968 228.799647 952.220968 225.48553 L 952.220968 6.998734 C 952.220968 3.684617 949.537367 1.001016 946.223251 1.001016 L 574.781627 1.001016 C 571.472722 1.001016 568.78391 3.684617 568.78391 6.998734 L 568.78391 396.918121 C 568.78391 400.232238 566.100309 402.92105 562.786192 402.92105 L 352.928606 402.92105 C 349.614489 402.92105 346.925677 400.232238 346.925677 396.918121 L 346.925677 6.998734 C 346.925677 3.684617 344.242076 1.001016 340.927959 1.001016 L 188.244098 1.001016 C 184.929981 1.001016 182.24638 3.684617 182.24638 6.998734 L 182.24638 114.717951 " stroke="#d9d9d9" stroke-width="2" stroke-opacity="1" stroke-miterlimit="4"/></svg>