<svg xmlns="http://www.w3.org/2000/svg" xmlns:xlink="http://www.w3.org/1999/xlink" width="1366" zoomAndPan="magnify" viewBox="0 0 1024.5 1944" height="2592" preserveAspectRatio="xMidYMid meet" version="1.0"><path stroke-linecap="butt" transform="matrix(0.749634, 0, 0, 0.749634, 142.335606, 58.046131)" fill="none" stroke-linejoin="miter" d="M 862.004301 2372.601166 L 862.004301 2160.951038 C 862.004301 2157.636921 859.320701 2154.953321 856.006584 2154.953321 L 559.893376 2154.953321 C 556.579259 2154.953321 553.895658 2157.636921 553.895658 2160.951038 L 553.895658 2286.741571 C 553.895658 2290.055688 556.579259 2292.739289 559.893376 2292.739289 L 775.310967 2292.739289 C 778.625084 2292.739289 781.308684 2290.055688 781.308684 2286.741571 L 781.308684 1953.485243 C 781.308684 1950.171127 783.997496 1947.482315 787.311613 1947.482315 L 985.694852 1947.482315 C 989.008969 1947.482315 991.69778 1944.798714 991.69778 1941.484597 L 991.69778 1788.738205 C 991.69778 1785.424089 989.008969 1782.735277 985.694852 1782.735277 L 36.17434 1782.735277 C 32.860223 1782.735277 30.171411 1780.051676 30.171411 1776.737559 L 30.171411 1604.565024 C 30.171411 1601.250907 32.860223 1598.562095 36.17434 1598.562095 L 679.941524 1598.562095 C 683.255641 1598.562095 685.939242 1595.878494 685.939242 1592.564378 L 685.939242 1354.792131 C 685.939242 1351.478015 688.628054 1348.794414 691.942171 1348.794414 L 985.694852 1348.794414 C 989.008969 1348.794414 991.69778 1346.105602 991.69778 1342.791485 L 991.69778 1003.975153 C 991.69778 1000.661036 989.008969 997.977436 985.694852 997.977436 L 830.530614 997.977436 C 827.216497 997.977436 824.527685 1000.661036 824.527685 1003.975153 L 824.527685 1176.746939 C 824.527685 1180.061056 827.216497 1182.744657 830.530614 1182.744657 L 933.377662 1182.744657 C 936.691779 1182.744657 939.380591 1180.061056 939.380591 1176.746939 L 939.380591 1086.385148 C 939.380591 1083.071031 936.691779 1080.387431 933.377662 1080.387431 L 580.346062 1080.387431 C 577.031945 1080.387431 574.348344 1077.698619 574.348344 1074.384502 L 574.348344 915.781086 C 574.348344 912.46697 577.031945 909.778158 580.346062 909.778158 L 775.310967 909.778158 C 778.625084 909.778158 781.308684 907.094557 781.308684 903.78044 L 781.308684 720.159611 C 781.308684 716.850705 778.625084 714.161894 775.310967 714.161894 L 538.867494 714.161894 C 535.553377 714.161894 532.864565 711.478293 532.864565 708.164176 L 532.864565 587.673103 C 532.864565 584.364197 535.553377 581.675386 538.867494 581.675386 L 679.941524 581.675386 C 683.255641 581.675386 685.939242 578.991785 685.939242 575.677668 L 685.939242 249.002676 C 685.939242 245.688559 688.628054 243.004958 691.942171 243.004958 L 985.694852 243.004958 C 989.008969 243.004958 991.69778 245.688559 991.69778 249.002676 L 991.69778 430.137917 C 991.69778 433.452034 989.008969 436.135635 985.694852 436.135635 L 580.346062 436.135635 C 577.031945 436.135635 574.348344 433.452034 574.348344 430.137917 L 574.348344 6.999199 C 574.348344 3.685082 571.659533 1.001481 568.345416 1.001481 L 362.870176 1.001481 C 359.556059 1.001481 356.872458 3.685082 356.872458 6.999199 L 356.872458 362.427801 C 356.872458 365.741918 354.183646 368.425519 350.869529 368.425519 L 36.17434 368.425519 C 32.860223 368.425519 30.171411 365.741918 30.171411 362.427801 L 30.171411 175.034299 C 30.171411 171.720182 32.860223 169.036581 36.17434 169.036581 L 304.492738 169.036581 C 307.806855 169.036581 310.495667 171.720182 310.495667 175.034299 L 310.495667 575.677668 C 310.495667 578.991785 307.806855 581.675386 304.492738 581.675386 L 159.119735 581.675386 C 155.805618 581.675386 153.122017 578.991785 153.122017 575.677668 L 153.122017 418.877215 C 153.122017 415.563098 155.805618 412.879498 159.119735 412.879498 L 420.106431 412.879498 C 423.420548 412.879498 426.104149 415.563098 426.104149 418.877215 L 426.104149 795.467183 C 426.104149 798.7813 423.420548 801.464901 420.106431 801.464901 L 6.998648 801.464901 C 3.684531 801.464901 1.000931 804.153713 1.000931 807.462619 L 1.000931 1038.742114 C 1.000931 1042.056231 3.684531 1044.745043 6.998648 1044.745043 L 304.492738 1044.745043 C 307.806855 1044.745043 310.495667 1042.056231 310.495667 1038.742114 L 310.495667 915.781086 C 310.495667 912.46697 307.806855 909.778158 304.492738 909.778158 L 159.119735 909.778158 C 155.805618 909.778158 153.122017 912.46697 153.122017 915.781086 L 153.122017 1176.746939 C 153.122017 1180.061056 150.433206 1182.744657 147.119089 1182.744657 L 36.17434 1182.744657 C 32.860223 1182.744657 30.171411 1185.433469 30.171411 1188.742375 L 30.171411 1342.791485 C 30.171411 1346.105602 32.860223 1348.794414 36.17434 1348.794414 L 568.345416 1348.794414 C 571.659533 1348.794414 574.348344 1346.105602 574.348344 1342.791485 L 574.348344 1243.336717 C 574.348344 1240.0226 571.659533 1237.333788 568.345416 1237.333788 L 362.870176 1237.333788 C 359.556059 1237.333788 356.872458 1240.0226 356.872458 1243.336717 L 356.872458 2000.680142 C 356.872458 2003.994259 354.183646 2006.683071 350.869529 2006.683071 L 86.766729 2006.683071 C 83.452613 2006.683071 80.769012 2009.366672 80.769012 2012.680788 L 80.769012 2372.601166 C 80.769012 2375.915283 83.452613 2378.598884 86.766729 2378.598884 L 856.006584 2378.598884 C 859.320701 2378.598884 862.004301 2375.915283 862.004301 2372.601166 Z M 862.004301 2372.601166 " stroke="#d9d9d9" stroke-width="2" stroke-opacity="1" stroke-miterlimit="4"/></svg>