<svg xmlns="http://www.w3.org/2000/svg" xmlns:xlink="http://www.w3.org/1999/xlink" width="1123" zoomAndPan="magnify" viewBox="0 0 842.25 595.499986" height="794" preserveAspectRatio="xMidYMid meet" version="1.0"><defs><clipPath id="05393618ae"><path d="M 0.507812 0.285156 L 725.621094 0.285156 L 725.621094 452.519531 L 0.507812 452.519531 Z M 0.507812 0.285156 " clip-rule="nonzero"/></clipPath><clipPath id="af32ac5112"><rect x="0" width="726" y="0" height="453"/></clipPath></defs><g transform="matrix(1, 0, 0, 1, 58, 58)"><g clip-path="url(#af32ac5112)"><g clip-path="url(#05393618ae)"><path stroke-linecap="butt" transform="matrix(0.749615, 0, 0, 0.749615, 2.064827, 1.88694)" fill="none" stroke-linejoin="miter" d="M 428.122816 598.124309 L 685.004621 598.124309 C 688.318822 598.124309 691.00249 595.435429 691.00249 592.121229 L 691.00249 248.502211 C 691.00249 245.18801 693.69137 242.504341 697.00557 242.504341 L 956.023889 242.504341 C 959.338089 242.504341 962.021758 245.18801 962.021758 248.502211 L 962.021758 429.636817 C 962.021758 432.951017 959.338089 435.639897 956.023889 435.639897 L 550.67528 435.639897 C 547.36108 435.639897 544.6722 432.951017 544.6722 429.636817 L 544.6722 6.497831 C 544.6722 3.188841 541.988532 0.499961 538.674331 0.499961 L 352.302663 0.499961 C 348.988462 0.499961 346.299583 3.188841 346.299583 6.497831 L 346.299583 361.930202 C 346.299583 365.239191 343.615914 367.928071 340.301714 367.928071 L 6.500233 367.928071 C 3.186032 367.928071 0.502364 365.239191 0.502364 361.930202 L 0.502364 174.537176 C 0.502364 171.222976 3.186032 168.534096 6.500233 168.534096 L 274.820198 168.534096 C 278.134399 168.534096 280.818068 171.222976 280.818068 174.537176 L 280.818068 549.125209 C 280.818068 552.43941 278.134399 555.123078 274.820198 555.123078 L 105.128964 555.123078 C 101.819974 555.123078 99.131095 552.43941 99.131095 549.125209 L 99.131095 418.375831 C 99.131095 415.06163 101.819974 412.377961 105.128964 412.377961 L 416.121867 412.377961 C 419.436067 412.377961 422.124947 415.06163 422.124947 418.375831 L 422.124947 592.121229 C 422.124947 595.435429 424.808615 598.124309 428.122816 598.124309 Z M 428.122816 598.124309 " stroke="#d9d9d9" stroke-width="1" stroke-opacity="1" stroke-miterlimit="4"/></g></g></g></svg>