<svg xmlns="http://www.w3.org/2000/svg" xmlns:xlink="http://www.w3.org/1999/xlink" width="1366" zoomAndPan="magnify" viewBox="0 0 1024.5 576" height="768" preserveAspectRatio="xMidYMid meet" version="1.0"><defs><clipPath id="07f66c154a"><path d="M 0 0.140625 L 1024 0.140625 L 1024 575.859375 L 0 575.859375 Z M 0 0.140625 " clip-rule="nonzero"/></clipPath></defs><g clip-path="url(#07f66c154a)"><path stroke-linecap="butt" transform="matrix(0.749634, 0, 0, 0.749634, -33.955043, -66.129967)" fill="none" stroke-linejoin="miter" d="M 646.281386 856.403582 L 646.281386 644.154204 C 646.281386 640.840087 648.964986 638.156486 652.279103 638.156486 L 1475.39941 638.156486 C 1478.713526 638.156486 1481.402338 640.840087 1481.402338 644.154204 L 1481.402338 788.818528 C 1481.402338 792.132645 1478.713526 794.821456 1475.39941 794.821456 L 973.081439 794.821456 C 969.767322 794.821456 967.07851 792.132645 967.07851 788.818528 L 967.07851 275.463923 C 967.07851 272.149806 969.767322 269.466205 973.081439 269.466205 L 1225.277388 269.466205 C 1228.591505 269.466205 1231.275106 272.149806 1231.275106 275.463923 L 1231.275106 572.629728 C 1231.275106 575.943844 1228.591505 578.632656 1225.277388 578.632656 L 814.514499 578.632656 C 811.200382 578.632656 808.516782 575.943844 808.516782 572.629728 L 808.516782 6.99962 C 808.516782 3.685503 805.82797 1.001903 802.513853 1.001903 L 597.038613 1.001903 C 593.724496 1.001903 591.040895 3.685503 591.040895 6.99962 L 591.040895 476.061784 C 591.040895 479.375901 588.352083 482.064712 585.037966 482.064712 L 7.000765 482.064712 C 3.686648 482.064712 0.997836 479.375901 0.997836 476.061784 L 0.997836 251.915977 C 0.997836 248.60186 3.686648 245.918259 7.000765 245.918259 L 404.444656 245.918259 C 407.758773 245.918259 410.442374 248.60186 410.442374 251.915977 L 410.442374 731.358204 C 410.442374 734.672321 407.758773 737.355922 404.444656 737.355922 L 145.12544 737.355922 C 141.811323 737.355922 139.127722 734.672321 139.127722 731.358204 L 139.127722 568.549612 C 139.127722 565.235495 141.811323 562.546684 145.12544 562.546684 L 527.098242 562.546684 C 530.412359 562.546684 533.09596 565.235495 533.09596 568.549612 L 533.09596 874.428 " stroke="#d9d9d9" stroke-width="2" stroke-opacity="1" stroke-miterlimit="4"/></g></svg>